<svg width="64" height="20" viewBox="0 0 64 20" fill="none" xmlns="http://www.w3.org/2000/svg">
<path d="M20 10C20 15.5228 15.5228 20 10 20C4.47715 20 0 15.5228 0 10C0 4.47715 4.47715 0 10 0C15.5228 0 20 4.47715 20 10Z" fill="white"/>
<path d="M42 10C42 15.5228 37.5228 20 32 20C26.4772 20 22 15.5228 22 10C22 4.47715 26.4772 0 32 0C37.5228 0 42 4.47715 42 10Z" fill="white"/>
<path d="M64 10C64 15.5228 59.5228 20 54 20C48.4772 20 44 15.5228 44 10C44 4.47715 48.4772 0 54 0C59.5228 0 64 4.47715 64 10Z" fill="white"/>
</svg>
